<svg xmlns="http://www.w3.org/2000/svg" width="256" height="256" viewBox="0 0 100 100"><rect width="100" height="100" rx="20" fill="#2a5ba9"></rect><path fill="#fff" d="M72.55 76.05L72.55 76.05Q71.56 76.86 70.03 77.41Q68.50 77.94 66.43 77.94L66.43 77.94Q63.91 77.94 62.06 77Q60.22 76.05 58.69 73.44L58.69 73.44L43.84 47.61Q42.84 45.91 41.81 44.02Q40.78 42.13 39.83 40.23Q38.89 38.34 38.03 36.59Q37.17 34.84 36.55 33.48L36.55 33.48L36.09 33.58Q36.55 38.26 36.73 43.61Q36.91 48.97 36.91 53.73L36.91 53.73L36.91 77.22Q36.28 77.41 35.06 77.63Q33.84 77.86 32.59 77.86L32.59 77.86Q29.89 77.86 28.67 76.86Q27.46 75.88 27.46 73.53L27.46 73.53L27.46 24.21Q28.36 23.23 30.02 22.64Q31.69 22.05 33.58 22.05L33.58 22.05Q36.09 22.05 37.98 22.95Q39.88 23.85 41.41 26.46L41.41 26.46L56.34 52.38Q57.34 54.09 58.33 55.98Q59.32 57.88 60.26 59.77Q61.20 61.66 62.06 63.41Q62.91 65.16 63.55 66.52L63.55 66.52L63.91 66.42Q63.19 59.58 63.09 52.88Q63.01 46.17 63.01 39.78L63.01 39.78L63.01 22.69Q63.73 22.51 64.90 22.28Q66.06 22.05 67.41 22.05L67.41 22.05Q70.12 22.05 71.33 23.05Q72.55 24.03 72.55 26.38L72.55 26.38L72.55 76.05Z"></path></svg>